<?xml version="1.0" encoding="UTF-8"?>
<svg version="1.1" xmlns="http://www.w3.org/2000/svg" width="653" height="519">
<path d="M0 0 C215.49 0 430.98 0 653 0 C653 171.27 653 342.54 653 519 C437.51 519 222.02 519 0 519 C0 347.73 0 176.46 0 0 Z " fill="#00021E" transform="translate(0,0)"/>
<path d="M0 0 C3.51281529 1.50297281 5.77662518 3.52748498 8.46722412 6.21998596 C9.35620895 7.10477631 10.24519379 7.98956665 11.16111755 8.90116882 C12.13843307 9.88396738 13.11564835 10.86686563 14.09277344 11.84985352 C15.12741117 12.8834181 16.16248176 13.91654952 17.19795227 14.94927979 C20.00594109 17.75242384 22.8076445 20.56177371 25.60813046 23.37241101 C28.53700297 26.31006506 31.47114424 29.24244787 34.40460205 32.17552185 C39.32735084 37.09920691 44.24621186 42.0267489 49.16259766 46.95678711 C54.85446637 52.66440274 60.55156647 58.36675326 66.25168014 64.06613404 C71.72910686 69.54295152 77.20367616 75.0226154 82.67664337 80.50388908 C85.00920512 82.83998996 87.34262198 85.17523183 89.67668915 87.50982857 C92.42050035 90.25464061 95.16176008 93.00197556 97.90102196 95.75132751 C98.90961438 96.76285266 99.91906676 97.77352114 100.92941475 98.78329277 C102.30215989 100.1555509 103.67153939 101.53117348 105.04071045 102.90699768 C106.1943767 104.0631777 106.1943767 104.0631777 107.37134933 105.24271488 C109 107 109 107 109 108 C100.19824608 109.70755082 91.38077019 110.81043378 82.4375 111.4375 C81.77165138 111.48443371 81.10580276 111.53136742 80.41977692 111.57972336 C62.26618965 112.70569859 48.65455785 109.81593069 34.80021095 97.58206749 C20.66099001 84.6499527 7.9915123 70.06730647 -4.07522583 55.20826721 C-5.80818776 52.93740366 -5.80818776 52.93740366 -8 52 C-8 70.48 -8 88.96 -8 108 C-13.94 108 -19.88 108 -26 108 C-26.0903474 97.89916057 -26.1637425 87.79858923 -26.20724869 77.69743729 C-26.22812886 73.00712327 -26.25645422 68.31709987 -26.30175781 63.62695312 C-26.34520044 59.10117484 -26.36913387 54.57567619 -26.37950897 50.04970551 C-26.38690321 48.32249295 -26.40134245 46.5952958 -26.42292023 44.86820221 C-26.45193394 42.44988361 -26.45595697 40.03272229 -26.45410156 37.61425781 C-26.46848267 36.89928131 -26.48286377 36.18430481 -26.49768066 35.44766235 C-26.46958307 32.06591567 -26.25123891 30.31929971 -24.1317749 27.62567139 C-21.84190846 25.87944088 -19.50747049 24.41447053 -17 23 C-16.01 22.34 -15.02 21.68 -14 21 C-13.15998947 21.86443726 -12.31997894 22.72887451 -11.45451355 23.61950684 C-3.52560574 31.77162774 4.43236214 39.89437336 12.41951466 47.98944855 C16.52470851 52.15199328 20.61907109 56.32411644 24.69018555 60.52001953 C28.62122291 64.57078305 32.57871659 68.59388711 36.55579185 72.59944153 C38.06652697 74.13046527 39.56756389 75.67112304 41.0584507 77.22148132 C43.15298151 79.3961584 45.27977059 81.53363939 47.41723633 83.66601562 C48.02288925 84.31121658 48.62854218 84.95641754 49.25254822 85.62117004 C55.11014487 91.33007637 56.5768287 90 66 90 C41.25 65.25 16.5 40.5 -9 15 C-7 11 -7 11 -3.9375 8.625 C-0.74190062 6.25431892 -0.74190062 6.25431892 -0.125 2.6875 C-0.08375 1.800625 -0.0425 0.91375 0 0 Z " fill="#DC5D86" transform="translate(285,172)"/>
<path d="M0 0 C14.19 0 28.38 0 43 0 C42.773125 3.568125 42.54625 7.13625 42.3125 10.8125 C42.25217794 20.06145961 44.23666896 25.68013517 50.62182617 32.43432617 C58.15765905 40.38024812 58.15765905 40.38024812 68 44 C70.31324158 42.54482107 70.31324158 42.54482107 72.39135742 40.25805664 C73.22539597 39.41710953 74.05943451 38.57616241 74.91874695 37.70973206 C75.80536514 36.78587204 76.69198334 35.86201202 77.60546875 34.91015625 C79.01142232 33.48398895 80.41738031 32.05782598 81.82360554 30.63192654 C83.79047895 28.62994452 85.74324973 26.61446694 87.6963501 24.59906006 C91.12078927 21.07033605 94.56509011 17.56103368 98.01252747 14.05479431 C99.84739557 12.18581048 101.67607 10.31072318 103.49809265 8.42921448 C104.32267471 7.5851152 105.14725677 6.74101593 105.99682617 5.87133789 C106.72342941 5.1221962 107.45003265 4.3730545 108.19865417 3.60121155 C110 2 110 2 112 2 C112.20505665 5.83253129 112.32820828 9.66363766 112.4375 13.5 C112.52547852 15.11648437 112.52547852 15.11648437 112.61523438 16.765625 C112.63779297 17.82265625 112.66035156 18.8796875 112.68359375 19.96875 C112.72025146 20.93232422 112.75690918 21.89589844 112.79467773 22.88867188 C111.56474539 27.70411204 108.41865303 30.50795239 105 34 C104.37018723 34.65468262 103.74037445 35.30936523 103.09147644 35.98388672 C101.09724164 38.03401193 99.0800126 40.05872527 97.0546875 42.078125 C96.32178497 42.81198425 95.58888245 43.54584351 94.83377075 44.30194092 C93.29714642 45.83924078 91.75927852 47.37529855 90.22021484 48.91015625 C87.87091005 51.25408058 85.52702222 53.60332719 83.18359375 55.953125 C81.68261238 57.45344593 80.18132104 58.95345682 78.6796875 60.453125 C77.98374481 61.15109192 77.28780212 61.84905884 76.57077026 62.56817627 C73.18953825 65.93320388 69.8130058 69.11512977 66 72 C62.92591231 70.61690503 60.69880791 69.00489491 58.24121094 66.70629883 C57.52076599 66.03411819 56.80032104 65.36193756 56.05804443 64.66938782 C52.79371086 61.56142861 49.54667579 58.43659703 46.31738281 55.29223633 C44.61364796 53.64666436 42.89488928 52.01649869 41.16113281 50.40258789 C25.17747544 35.50900254 25.17747544 35.50900254 24.79205322 27.35002136 C24.93095381 24.49539923 25.33828564 21.77811298 26 19 C23.36 19 20.72 19 18 19 C18.02618408 19.8470752 18.05236816 20.69415039 18.0793457 21.56689453 C18.16492505 24.73138062 18.22742097 27.89527406 18.2746582 31.06054688 C18.2996928 32.42630503 18.33373218 33.79193067 18.37719727 35.15722656 C18.77476669 47.97299401 18.77476669 47.97299401 15.73828125 51.69921875 C14.83464844 52.45847656 13.93101562 53.21773437 13 54 C12.29617188 54.66386719 11.59234375 55.32773438 10.8671875 56.01171875 C10.20976562 56.56472656 9.55234375 57.11773437 8.875 57.6875 C6.9574388 59.31033876 5.1109906 60.88284325 3.3828125 62.70703125 C2 64 2 64 0 64 C0 42.88 0 21.76 0 0 Z " fill="#E86B84" transform="translate(259,126)"/>
<path d="M0 0 C4.14110564 2.39478774 8.94252192 5.32105553 10.76171875 9.9296875 C11.76600425 18.65544678 11.19499293 24.46517132 6.0625 31.75 C3.43554009 34.61577444 1.46359136 35.86161556 -2.4375 36.23046875 C-3.283125 36.21628906 -4.12875 36.20210938 -5 36.1875 C-5.845625 36.18105469 -6.69125 36.17460937 -7.5625 36.16796875 C-11.39210786 35.90406949 -13.33901675 35.68101305 -16.0625 32.875 C-20.51885246 26.26234796 -21.93234345 20.93130525 -21 13 C-19.36870191 7.76267454 -17.17660496 4.55011422 -13 1 C-8.53887337 -0.48704221 -4.64346574 -0.91956274 0 0 Z " fill="#C64B81" transform="translate(341,312)"/>
<path d="M0 0 C7.40577337 4.60803676 7.40577337 4.60803676 8.421875 7.4609375 C9.6912072 14.89922418 10.27723102 22.47088268 6.0625 29 C3.94767506 31.84112846 2.15574461 33.52715557 -1.1875 34.75 C-6.75611671 35.47767344 -11.58900896 35.94886828 -16.1875 32.5 C-16.8475 31.5925 -17.5075 30.685 -18.1875 29.75 C-18.88101562 29.16347656 -19.57453125 28.57695312 -20.2890625 27.97265625 C-23.43192893 24.29304514 -22.60239773 20.58681212 -22.44140625 15.94921875 C-22.01433939 10.56817637 -21.40741456 7.19463567 -17.8125 2.9375 C-12.20786973 -1.73302523 -6.88179851 -2.69874451 0 0 Z " fill="#C74B81" transform="translate(501.1875,313.25)"/>
<path d="M0 0 C0.80377812 14.8143149 1.10886003 29.60450297 1.125 44.4375 C1.12874634 45.61907684 1.12874634 45.61907684 1.13256836 46.82452393 C1.16229475 58.24986228 0.74395553 69.59917802 0 81 C3.63 81 7.26 81 11 81 C10.99214478 78.44922729 10.99214478 78.44922729 10.98413086 75.84692383 C10.96798493 70.21909692 10.95650571 64.59127334 10.94818783 58.96342945 C10.94297636 55.55234797 10.93591032 52.14129163 10.92456055 48.73022461 C10.91158495 44.80582992 10.90675742 40.88144529 10.90234375 36.95703125 C10.89718246 35.73603226 10.89202118 34.51503326 10.88670349 33.2570343 C10.88662796 32.1162291 10.88655243 30.97542389 10.88647461 29.80004883 C10.884254 28.79855301 10.88203339 27.79705719 10.87974548 26.76521301 C10.99676619 24.07436047 11.39569646 21.62058175 12 19 C15.26908022 20.08969341 15.82305697 20.71385868 17.92016602 23.29125977 C22.50909901 28.69436433 27.52888799 33.64135992 32.55549431 38.6306591 C34.31014543 40.37240417 36.06152806 42.11737929 37.81214905 43.86317444 C41.51777363 47.55745958 45.22736054 51.24774988 48.9375 54.9375 C53.26311716 59.23951632 57.58709549 63.54315432 61.90692329 67.85098457 C63.63554593 69.57310908 65.36714096 71.2922069 67.09886169 73.01121521 C68.14800358 74.05672819 69.19700736 75.10237979 70.24584961 76.14819336 C71.16627548 77.06338242 72.08670135 77.97857147 73.03501892 78.92149353 C75 81 75 81 75 82 C72.8490448 82.31455994 72.8490448 82.31455994 70 82 C67.91910909 80.38146337 66.22615636 78.84969014 64.4152832 76.96704102 C63.88131927 76.43220093 63.34735535 75.89736084 62.79721069 75.34631348 C61.03642416 73.57695094 59.29389971 71.79066279 57.55078125 70.00390625 C56.33077292 68.77203061 55.10957958 67.54132752 53.88725281 66.31175232 C50.67294496 63.07269004 47.47349677 59.81934359 44.27734375 56.56237793 C39.76595673 51.97055055 35.23463551 47.39837963 30.70561218 42.82395935 C28.29324041 40.38729818 25.886477 37.94529627 23.48396301 35.49891663 C22.38816935 34.38671289 21.29236025 33.27452436 20.1965332 32.16235352 C19.69728836 31.65165817 19.19804352 31.14096283 18.68367004 30.61479187 C16.09918996 27.96935948 16.09918996 27.96935948 13 26 C13 44.48 13 62.96 13 82 C7.06 82 1.12 82 -5 82 C-5.0903474 71.89916057 -5.1637425 61.79858923 -5.20724869 51.69743729 C-5.22812886 47.00712327 -5.25645422 42.31709987 -5.30175781 37.62695312 C-5.34520044 33.10117484 -5.36913387 28.57567619 -5.37950897 24.04970551 C-5.38690321 22.32249295 -5.40134245 20.5952958 -5.42292023 18.86820221 C-5.45193394 16.44988361 -5.45595697 14.03272229 -5.45410156 11.61425781 C-5.46848267 10.89928131 -5.48286377 10.18430481 -5.49768066 9.44766235 C-5.46879274 5.97079408 -5.22715368 4.28608429 -3.03411865 1.52410889 C-1 0 -1 0 0 0 Z " fill="#712385" transform="translate(264,198)"/>
<path d="M0 0 C2.89640118 -0.08120751 5.79050912 -0.14059421 8.6875 -0.1875 C9.50412109 -0.21263672 10.32074219 -0.23777344 11.16210938 -0.26367188 C15.97545043 -0.32213351 19.05803722 -0.08670459 23 3 C24.56977574 4.56977574 24.20737081 6.14196387 24.25 8.3125 C24.22976799 11.48892544 24.13768129 12.76479446 22.5 15.5625 C22.005 16.036875 21.51 16.51125 21 17 C21.639375 17.309375 22.27875 17.61875 22.9375 17.9375 C25 19 25 19 26 20 C26.44171515 23.05414473 26.47209366 25.94954866 26 29 C23.47031526 32.28175318 21.92268669 33.69243777 18 35 C16.59175107 35.08021999 15.18002769 35.10765977 13.76953125 35.09765625 C12.68442261 35.09390991 12.68442261 35.09390991 11.57739258 35.09008789 C10.20877075 35.07643188 10.20877075 35.07643188 8.8125 35.0625 C5.904375 35.041875 2.99625 35.02125 0 35 C0 25.43 0 15.86 0 6 C-0.66 6 -1.32 6 -2 6 C-1.34 4.02 -0.68 2.04 0 0 Z " fill="#CD4D84" transform="translate(365,313)"/>
<path d="M0 0 C2.97 -0.103125 5.94 -0.20625 9 -0.3125 C9.91910156 -0.35802002 10.83820313 -0.40354004 11.78515625 -0.45043945 C17.29673372 -0.54202334 20.85196007 0.50879459 25.49169922 3.4777832 C27.92078609 5.92928153 28.10502321 8.4994957 28.171875 11.84765625 C27.94491879 14.68976701 27.59497466 16.60753801 26 19 C23.375 20.3125 23.375 20.3125 21 21 C22.25153789 23.60737061 23.64306913 26.08210506 25.125 28.5625 C27 32 27 32 27 35 C24.03 35 21.06 35 18 35 C17.38511719 33.82630859 17.38511719 33.82630859 16.7578125 32.62890625 C16.21898437 31.61699219 15.68015625 30.60507812 15.125 29.5625 C14.59132813 28.55316406 14.05765625 27.54382813 13.5078125 26.50390625 C12.24345886 23.89859558 12.24345886 23.89859558 10 23 C10 26.96 10 30.92 10 35 C7.03 35 4.06 35 1 35 C0.505 17.675 0.505 17.675 0 0 Z " fill="#C34A7F" transform="translate(440,313)"/>
<path d="M0 0 C19.45890659 -0.93552436 19.45890659 -0.93552436 24.77734375 3.3046875 C27.12109471 6.55448915 27.4617765 10.08889295 27 14 C25.50415217 17.84349791 23.63336572 19.08770225 20 21 C21.25153789 23.60737061 22.64306913 26.08210506 24.125 28.5625 C26 32 26 32 26 35 C23.03 35 20.06 35 17 35 C16.67386719 34.30132812 16.34773438 33.60265625 16.01171875 32.8828125 C15.57472656 31.97273438 15.13773438 31.06265625 14.6875 30.125 C14.04361328 28.76761719 14.04361328 28.76761719 13.38671875 27.3828125 C12.0800612 24.73550524 12.0800612 24.73550524 9 23 C9 26.96 9 30.92 9 35 C6.03 35 3.06 35 0 35 C-0.16748075 30.33712319 -0.32805376 25.67407963 -0.48217773 21.01074219 C-0.53560756 19.42376271 -0.59093771 17.83684605 -0.64819336 16.25 C-0.73007724 13.97149196 -0.80516524 11.69284678 -0.87890625 9.4140625 C-0.90594131 8.70255035 -0.93297638 7.99103821 -0.96083069 7.25796509 C-1.11387171 2.22774341 -1.11387171 2.22774341 0 0 Z " fill="#C34A7F" transform="translate(204,313)"/>
<path d="M0 0 C3.96 0 7.92 0 12 0 C13.57247211 4.50032696 15.13888352 9.00269981 16.69970703 13.50708008 C17.23157201 15.03923413 17.76509085 16.5708151 18.30029297 18.10180664 C19.06913435 20.30206236 19.83201147 22.50430801 20.59375 24.70703125 C20.83436157 25.39150833 21.07497314 26.07598541 21.32287598 26.78120422 C22.31225239 29.65837218 23 31.93309937 23 35 C20.03 35 17.06 35 14 35 C13.67 33.02 13.34 31.04 13 29 C9.04 29 5.08 29 1 29 C0.34 30.98 -0.32 32.96 -1 35 C-3.64 35 -6.28 35 -9 35 C-7.93998948 28.27605268 -6.05318771 21.97882855 -3.82861328 15.56396484 C-2.06886815 10.41108362 -0.90740929 5.36196397 0 0 Z " fill="#C54A80" transform="translate(169,313)"/>
<path d="M0 0 C-1.3809279 3.2004524 -2.89419069 5.0085445 -5.578125 7.2109375 C-10.20326074 11.1278885 -14.47752023 15.32975391 -18.75 19.625 C-19.49121094 20.36234375 -20.23242188 21.0996875 -20.99609375 21.859375 C-24.55529413 25.42496532 -27.96765497 28.9621932 -31 33 C-34.31494005 32.42722418 -35.8234302 31.48387476 -38.0625 29 C-40.16638793 26.67846849 -40.90402543 26.03199152 -44 25 C-44.91577148 23.24902344 -44.91577148 23.24902344 -45 21 C-42.58146562 16.9810558 -39.29532875 13.63045483 -36.0625 10.25 C-35.60146881 9.76278473 -35.14043762 9.27556946 -34.66543579 8.77359009 C-24.30032973 -1.88237867 -14.17518077 -2.52632481 0 0 Z " fill="#F47783" transform="translate(358,127)"/>
<path d="M0 0 C3.3 0 6.6 0 10 0 C10.33 3.63 10.66 7.26 11 11 C14.11581877 8.1957631 15.56039112 5.90750982 17 2 C19 0 19 0 20.9453125 -0.1953125 C22.96354167 -0.13020833 24.98177083 -0.06510417 27 0 C26.40080115 3.41315801 25.16341917 5.25441431 22.9375 7.875 C20.80769692 10.62428907 20.03372215 11.80141401 19.4375 15.3125 C20.08521279 18.40712777 20.81629716 18.85286635 23 21 C23.9475242 22.42528992 24.84191258 23.88696929 25.6875 25.375 C26.12449219 26.12523437 26.56148437 26.87546875 27.01171875 27.6484375 C28.11599474 30.27600329 28.18446068 32.17825015 28 35 C25.36 35 22.72 35 20 35 C19.18162558 33.58671871 18.37053781 32.16921654 17.5625 30.75 C17.11003906 29.96109375 16.65757812 29.1721875 16.19140625 28.359375 C15 26 15 26 14.52734375 23.765625 C14.35332031 23.18296875 14.17929688 22.6003125 14 22 C13.01 21.67 12.02 21.34 11 21 C9.99740493 24.00778521 9.69685358 26.53820647 9.4375 29.6875 C9.35371094 30.68136719 9.26992187 31.67523438 9.18359375 32.69921875 C9.12300781 33.45847656 9.06242188 34.21773438 9 35 C6.36 35 3.72 35 1 35 C1 25.43 1 15.86 1 6 C0.34 6 -0.32 6 -1 6 C-0.67 4.02 -0.34 2.04 0 0 Z " fill="#C44A80" transform="translate(121,313)"/>
<path d="M0 0 C7.59 0 15.18 0 23 0 C22.67 1.98 22.34 3.96 22 6 C17.38 6 12.76 6 8 6 C8 8.64 8 11.28 8 14 C11.63 14 15.26 14 19 14 C19 16.31 19 18.62 19 21 C15.7 21 12.4 21 9 21 C9 23.31 9 25.62 9 28 C13.95 28 18.9 28 24 28 C24 30.31 24 32.62 24 35 C16.08 35 8.16 35 0 35 C0 25.43 0 15.86 0 6 C-0.66 6 -1.32 6 -2 6 C-1.34 4.02 -0.68 2.04 0 0 Z " fill="#C54A80" transform="translate(405,313)"/>
<path d="M0 0 C0.66 0 1.32 0 2 0 C3.70047804 1.76941634 5.20805753 3.66443425 6.7578125 5.56640625 C8.83041756 7.98184274 8.83041756 7.98184274 11.00878906 9.43725586 C16.65715184 13.60589788 16.65715184 13.60589788 17.64501953 17.62280273 C17.78611267 20.5986542 17.70109714 23.46551625 17.5 26.4375 C17.46390625 27.45521484 17.4278125 28.47292969 17.390625 29.52148438 C17.29693569 32.01596238 17.15345519 34.50848446 17 37 C11.39 37 5.78 37 0 37 C0 24.79 0 12.58 0 0 Z " fill="#9F1790" transform="translate(285,243)"/>
<path d="M0 0 C0.54369736 0.70602859 1.08739471 1.41205719 1.64756775 2.13948059 C4.15529209 5.18883265 6.84546048 7.98585836 9.63891602 10.76831055 C10.19063477 11.32178162 10.74235352 11.87525269 11.31079102 12.44549561 C13.12266709 14.26174861 14.93814743 16.07434805 16.75390625 17.88671875 C18.01910272 19.15258927 19.28415076 20.41860816 20.54905701 21.68476868 C23.19441222 24.33159506 25.84155996 26.97661198 28.48999023 29.62036133 C31.88519107 33.00985354 35.27586727 36.40383092 38.66522312 39.79916668 C41.27390597 42.41146084 43.88496314 45.02137129 46.49674797 47.63056374 C47.74821323 48.88136191 48.99893607 50.13290336 50.24890327 51.38519859 C51.99368785 53.13252027 53.74164169 54.87660841 55.49047852 56.61987305 C56.0064006 57.13781937 56.52232269 57.65576569 57.05387878 58.18940735 C59.28377311 60.40614567 61.3716737 62.24778246 64 64 C64 64.66 64 65.32 64 66 C65.485 66.495 65.485 66.495 67 67 C67 67.66 67 68.32 67 69 C67.58265625 69.25910156 68.1653125 69.51820313 68.765625 69.78515625 C71.16343838 71.08886248 72.81756794 72.51745533 74.75 74.4375 C75.36359375 75.03433594 75.9771875 75.63117188 76.609375 76.24609375 C78 78 78 78 78 81 C73.53562763 81.35276972 73.53562763 81.35276972 71.19784069 79.81307983 C70.64199952 79.2526297 70.08615835 78.69217957 69.51347351 78.11474609 C68.86712448 77.47527039 68.22077545 76.83579468 67.55484009 76.17694092 C66.86216034 75.46628479 66.16948059 74.75562866 65.45581055 74.0234375 C64.71380905 73.28216614 63.97180756 72.54089478 63.20732117 71.77716064 C60.75508521 69.32143834 58.32103717 66.84847429 55.88671875 64.375 C54.19101782 62.6699748 52.49421036 60.96604942 50.79634094 59.26318359 C46.32841777 54.77616077 41.87571141 50.27432599 37.42596436 45.76928711 C32.88353218 41.17572764 28.3269302 36.59627262 23.77148438 32.015625 C14.83369985 23.02420024 5.91143081 14.01754075 -3 5 C-1.125 1.125 -1.125 1.125 0 0 Z " fill="#5B2483" transform="translate(279,182)"/>
<path d="M0 0 C4.29 0 8.58 0 13 0 C12.80921875 1.76601562 12.6184375 3.53203125 12.421875 5.3515625 C13.23508008 15.82939724 21.53789148 22.10239925 28.75439453 28.98925781 C31.26144565 31.38594179 33.71627639 33.8280881 36.16796875 36.28125 C37.73937268 37.82318636 39.31349967 39.3623536 40.890625 40.8984375 C41.62726379 41.62839935 42.36390259 42.35836121 43.12286377 43.11044312 C43.81998474 43.76928497 44.51710571 44.42812683 45.23535156 45.10693359 C45.84300354 45.69171478 46.45065552 46.27649597 47.07672119 46.8789978 C48.98597598 48.22116972 48.98597598 48.22116972 51.47605896 47.91166687 C54.45583308 46.83534959 55.92582081 45.55723038 58.14770508 43.30639648 C59.31835258 42.13529579 59.31835258 42.13529579 60.51264954 40.9405365 C61.3399205 40.09262039 62.16719147 39.24470428 63.01953125 38.37109375 C63.87810226 37.50686295 64.73667328 36.64263214 65.6212616 35.75221252 C68.36120006 32.98988468 71.08690446 30.21397396 73.8125 27.4375 C75.66769895 25.5622396 77.52380803 23.68787914 79.38085938 21.81445312 C83.93118528 17.22002561 88.46990177 12.61436846 93 8 C93 11 93 11 91.55305481 12.81443787 C90.53643013 13.8255941 90.53643013 13.8255941 89.49926758 14.85717773 C88.73459671 15.6248497 87.96992584 16.39252167 87.18208313 17.18345642 C86.34469101 18.00850174 85.50729889 18.83354706 84.64453125 19.68359375 C83.79074387 20.53550797 82.93695648 21.38742218 82.05729675 22.26515198 C80.24570759 24.07000718 78.43051874 25.87125525 76.61206055 27.66918945 C73.83456116 30.41568509 71.06773056 33.17256362 68.30273438 35.93164062 C66.54228514 37.6829136 64.78123661 39.43358439 63.01953125 41.18359375 C61.7786248 42.41812538 61.7786248 42.41812538 60.51264954 43.67759705 C56.81584576 47.32889113 53.16953656 50.87981345 49 54 C45.92591231 52.61690503 43.69880791 51.00489491 41.24121094 48.70629883 C40.52076599 48.03411819 39.80032104 47.36193756 39.05804443 46.66938782 C35.79371086 43.56142861 32.54667579 40.43659703 29.31738281 37.29223633 C27.61364796 35.64666436 25.89488928 34.01649869 24.16113281 32.40258789 C8.17747544 17.50900254 8.17747544 17.50900254 7.79205322 9.35002136 C7.93095381 6.49539923 8.33828564 3.77811298 9 1 C6.36 1 3.72 1 1 1 C1 10.57 1 20.14 1 30 C0.67 30 0.34 30 0 30 C0 20.1 0 10.2 0 0 Z " fill="#602777" transform="translate(276,144)"/>
<path d="M0 0 C14.19 0 28.38 0 43 0 C43 7.59 43 15.18 43 23 C42.67 23 42.34 23 42 23 C42 16.07 42 9.14 42 2 C29.79 2 17.58 2 5 2 C5.33 19.49 5.66 36.98 6 55 C9.56521654 53.21739173 12.71455357 51.24007711 16 49 C14.46294916 52.78218127 12.15470258 54.9369256 9.125 57.625 C7.82949219 58.78902344 7.82949219 58.78902344 6.5078125 59.9765625 C4 62 4 62 0 64 C0 42.88 0 21.76 0 0 Z " fill="#562179" transform="translate(259,126)"/>
<path d="M0 0 C8.25 0 16.5 0 25 0 C24.67 1.98 24.34 3.96 24 6 C21.36 6 18.72 6 16 6 C16 15.57 16 25.14 16 35 C13.03 35 10.06 35 7 35 C7 25.43 7 15.86 7 6 C4.36 6 1.72 6 -1 6 C-0.67 4.02 -0.34 2.04 0 0 Z " fill="#C34A7F" transform="translate(243,313)"/>
<path d="M0 0 C1.52773435 3.05546871 1.08021964 6.2234978 1.02172852 9.57080078 C1.0073172 10.74166733 1.0073172 10.74166733 0.99261475 11.93618774 C0.95956843 14.52265281 0.91925764 17.10895192 0.87890625 19.6953125 C0.85461063 21.48606781 0.8307668 23.27682931 0.80735779 25.06759644 C0.74446128 29.78589915 0.67541043 34.50409272 0.60510254 39.22229004 C0.53446932 44.03486145 0.46962238 48.84751038 0.40429688 53.66015625 C0.27521281 63.10685603 0.13963071 72.55345064 0 82 C-1.32 82 -2.64 82 -4 82 C-4.0926561 71.89922487 -4.16374267 61.79855075 -4.20724869 51.69743729 C-4.22812886 47.00712327 -4.25645422 42.31709987 -4.30175781 37.62695312 C-4.34520044 33.10117484 -4.36913387 28.57567619 -4.37950897 24.04970551 C-4.38690321 22.32249295 -4.40134245 20.5952958 -4.42292023 18.86820221 C-4.45193394 16.44988361 -4.45595697 14.03272229 -4.45410156 11.61425781 C-4.46848267 10.89928131 -4.48286377 10.18430481 -4.49768066 9.44766235 C-4.468423 5.92629402 -4.23804293 4.29056093 -1.97161865 1.52410889 C-1.3209845 1.02115295 -0.67035034 0.51819702 0 0 Z " fill="#581F85" transform="translate(263,198)"/>
<path d="M0 0 C2.97 0 5.94 0 9 0 C9 11.55 9 23.1 9 35 C6.03 35 3.06 35 0 35 C-0.16748075 30.33712319 -0.32805376 25.67407963 -0.48217773 21.01074219 C-0.53560756 19.42376271 -0.59093771 17.83684605 -0.64819336 16.25 C-0.73007724 13.97149196 -0.80516524 11.69284678 -0.87890625 9.4140625 C-0.90594131 8.70255035 -0.93297638 7.99103821 -0.96083069 7.25796509 C-1.11387171 2.22774341 -1.11387171 2.22774341 0 0 Z " fill="#C0497E" transform="translate(524,313)"/>
<path d="M0 0 C2.97 0 5.94 0 9 0 C9 11.55 9 23.1 9 35 C6.03 35 3.06 35 0 35 C-0.16748075 30.33712319 -0.32805376 25.67407963 -0.48217773 21.01074219 C-0.53560756 19.42376271 -0.59093771 17.83684605 -0.64819336 16.25 C-0.73007724 13.97149196 -0.80516524 11.69284678 -0.87890625 9.4140625 C-0.90594131 8.70255035 -0.93297638 7.99103821 -0.96083069 7.25796509 C-1.11387171 2.22774341 -1.11387171 2.22774341 0 0 Z " fill="#C1497E" transform="translate(280,313)"/>
<path d="M0 0 C3.61407524 0.81316693 4.50772295 2.50129768 6.5 5.5625 C6.99609375 8.75390625 6.99609375 8.75390625 6.9375 12.125 C6.93621094 13.24003906 6.93492187 14.35507812 6.93359375 15.50390625 C6.46474202 18.81121169 5.8615322 20.23438571 3.5 22.5625 C0.5625 23.125 0.5625 23.125 -2.5 22.5625 C-5.23856015 19.86850955 -6.39586352 18.18808462 -7.03125 14.37109375 C-7.0209375 13.25863281 -7.010625 12.14617187 -7 11 C-7.0103125 9.88496094 -7.020625 8.76992188 -7.03125 7.62109375 C-6.27120773 3.24526217 -4.37251098 0.98381497 0 0 Z " fill="#110826" transform="translate(494.5,318.4375)"/>
<path d="M0 0 C2.49007224 2.43021474 2.98279974 3.85548408 3.3984375 7.34765625 C3.39070313 8.57355469 3.38296875 9.79945313 3.375 11.0625 C3.38273437 12.29097656 3.39046875 13.51945312 3.3984375 14.78515625 C3 18 3 18 1.6640625 19.91015625 C-0.9473125 21.62042298 -2.96637551 21.37920306 -6 21 C-8.55949546 19.14657225 -8.97918798 18.06243607 -10 15 C-10.19390957 13.00550155 -10.31118255 11.002886 -10.375 9 C-10.42398437 7.948125 -10.47296875 6.89625 -10.5234375 5.8125 C-10 3 -10 3 -7.640625 1.15234375 C-4.74600818 -0.11083963 -3.10999375 -0.57289359 0 0 Z " fill="#100725" transform="translate(339,320)"/>
<path d="M0 0 C0.66 0 1.32 0 2 0 C3.70047804 1.76941634 5.20805753 3.66443425 6.7578125 5.56640625 C8.83041756 7.98184274 8.83041756 7.98184274 11.00878906 9.43725586 C16.65715184 13.60589788 16.65715184 13.60589788 17.64501953 17.62280273 C17.78611267 20.5986542 17.70109714 23.46551625 17.5 26.4375 C17.46390625 27.45521484 17.4278125 28.47292969 17.390625 29.52148438 C17.29684854 32.01828272 17.16583025 34.50712488 17 37 C16.67 37 16.34 37 16 37 C16.03222656 35.94941406 16.06445312 34.89882813 16.09765625 33.81640625 C16.19437879 25.47042421 16.19437879 25.47042421 13 17.96875 C10.20589093 15.21046284 7.52545382 12.76272691 4 11 C4 19.58 4 28.16 4 37 C2.68 37 1.36 37 0 37 C0 24.79 0 12.58 0 0 Z " fill="#5B1E87" transform="translate(285,243)"/>
<path d="M0 0 C12.87 0 25.74 0 39 0 C39 7.26 39 14.52 39 22 C38.67 22 38.34 22 38 22 C38 15.07 38 8.14 38 1 C25.79 1 13.58 1 1 1 C1.33 18.49 1.66 35.98 2 54 C5.56521654 52.21739173 8.71455357 50.24007711 12 48 C10.5611898 51.387199 8.77880501 53.3594104 6 55.75 C4.948125 56.67039062 4.948125 56.67039062 3.875 57.609375 C2 59 2 59 0 59 C0 39.53 0 20.06 0 0 Z " fill="#A64879" transform="translate(263,127)"/>
<path d="M0 0 C-0.33 0.66 -0.66 1.32 -1 2 C-1.57741943 1.91097412 -2.15483887 1.82194824 -2.74975586 1.73022461 C-14.63586023 0.08226086 -14.63586023 0.08226086 -25.71044922 3.66845703 C-31.11344722 8.17875865 -35.69180202 13.45022138 -40 19 C-39.06122074 20.1065941 -38.12079084 21.21178799 -37.1796875 22.31640625 C-36.65616699 22.93201416 -36.13264648 23.54762207 -35.59326172 24.18188477 C-33.4984209 26.57236585 -31.28027529 28.78679163 -29 31 C-29.66 31.66 -30.32 32.32 -31 33 C-34.3306829 32.67702469 -35.86944034 31.43283418 -38.0625 29 C-40.16638793 26.67846849 -40.90402543 26.03199152 -44 25 C-44.91577148 23.24902344 -44.91577148 23.24902344 -45 21 C-42.58146562 16.9810558 -39.29532875 13.63045483 -36.0625 10.25 C-35.60146881 9.76278473 -35.14043762 9.27556946 -34.66543579 8.77359009 C-24.30032973 -1.88237867 -14.17518077 -2.52632481 0 0 Z " fill="#783772" transform="translate(358,127)"/>
<path d="M0 0 C5.75 -0.125 5.75 -0.125 8 1 C8.1875 4.375 8.1875 4.375 8 8 C5 10 5 10 0 10 C0 6.7 0 3.4 0 0 Z " fill="#361639" transform="translate(450,319)"/>
<path d="M0 0 C2.64 0.33 5.28 0.66 8 1 C8.1875 4.375 8.1875 4.375 8 8 C5 10 5 10 0 10 C0 6.7 0 3.4 0 0 Z " fill="#1B0C2B" transform="translate(213,319)"/>
<path d="M0 0 C2.33294775 -0.04241723 4.66702567 -0.04092937 7 0 C8 1 8 1 8.125 4 C8 7 8 7 7 8 C4.66702567 8.04092937 2.33294775 8.04241723 0 8 C0 5.36 0 2.72 0 0 Z " fill="#0F0725" transform="translate(374,333)"/>
<path d="M0 0 C1.98 0.99 1.98 0.99 4 2 C3.01 2.33 2.02 2.66 1 3 C1 20.49 1 37.98 1 56 C0.67 56 0.34 56 0 56 C0 37.52 0 19.04 0 0 Z " fill="#100528" transform="translate(277,224)"/>
<path d="M0 0 C0.99 0 1.98 0 3 0 C4.19287411 3.87684087 5 6.91621923 5 11 C2.69 11 0.38 11 -2 11 C-1.34 7.37 -0.68 3.74 0 0 Z " fill="#451B40" transform="translate(174,325)"/>
<path d="M0 0 C2.875 -0.125 2.875 -0.125 6 0 C8 2 8 2 8.125 4.625 C8.08375 5.40875 8.0425 6.1925 8 7 C5.36 7 2.72 7 0 7 C0 4.69 0 2.38 0 0 Z " fill="#4C1E44" transform="translate(373,319)"/>
<path d="M0 0 C0.8146875 0.00257813 1.629375 0.00515625 2.46875 0.0078125 C3.2834375 0.00523437 4.098125 0.00265625 4.9375 0 C6.96875 0.1328125 6.96875 0.1328125 7.96875 1.1328125 C8.10990161 3.80340101 8.01122107 6.45713488 7.96875 9.1328125 C4.57254269 11.22278623 1.91711905 11.3960371 -2.03125 11.1328125 C-3.03125 10.1328125 -3.03125 10.1328125 -3.1640625 8.1015625 C-3.16148437 7.286875 -3.15890625 6.4721875 -3.15625 5.6328125 C-3.15882813 4.818125 -3.16140625 4.0034375 -3.1640625 3.1640625 C-2.98414019 0.4123095 -2.751753 0.17992231 0 0 Z M-1.03125 1.1328125 C-1.03125 3.7728125 -1.03125 6.4128125 -1.03125 9.1328125 C1.30169775 9.17522973 3.63577567 9.17374187 5.96875 9.1328125 C7.31279775 8.01445026 7.31279775 8.01445026 7.09375 5.1328125 C7.31279775 2.25117474 7.31279775 2.25117474 5.96875 1.1328125 C3.63577567 1.09188313 1.30169775 1.09039527 -1.03125 1.1328125 Z " fill="#963968" transform="translate(375.03125,331.8671875)"/>
<path d="M0 0 C1.65 0 3.3 0 5 0 C5 2.31 5 4.62 5 7 C3.35 7 1.7 7 0 7 C0 4.69 0 2.38 0 0 Z " fill="#040320" transform="translate(452,321)"/>
<path d="M0 0 C0.66 0.33 1.32 0.66 2 1 C2.0809313 3.60478883 2.14045434 6.20706653 2.1875 8.8125 C2.22520508 9.91948242 2.22520508 9.91948242 2.26367188 11.04882812 C2.33713463 16.46058459 2.33713463 16.46058459 0.75 19 C-2.42610908 20.81491948 -5.41512388 20.17630538 -9 20 C-8.67 19.34 -8.34 18.68 -8 18 C-6.02 18.33 -4.04 18.66 -2 19 C-1.67 18.01 -1.34 17.02 -1 16 C-0.34 16 0.32 16 1 16 C0.67 10.72 0.34 5.44 0 0 Z " fill="#903766" transform="translate(341,322)"/>
<path d="M0 0 C1.32 0.33 2.64 0.66 4 1 C3.67 2.32 3.34 3.64 3 5 C2.34 4.67 1.68 4.34 1 4 C0.34 7.3 -0.32 10.6 -1 14 C-1.33 14 -1.66 14 -2 14 C-2.05410687 12.22950311 -2.09284119 10.45853151 -2.125 8.6875 C-2.14820313 7.70136719 -2.17140625 6.71523438 -2.1953125 5.69921875 C-2 3 -2 3 0 0 Z " fill="#4E1E45" transform="translate(132,334)"/>
<path d="M0 0 C0.66 0.33 1.32 0.66 2 1 C1.04882866 2.1725131 0.08882991 3.33787015 -0.875 4.5 C-1.40867187 5.1496875 -1.94234375 5.799375 -2.4921875 6.46875 C-2.98976563 6.9740625 -3.48734375 7.479375 -4 8 C-4.66 8 -5.32 8 -6 8 C-6 9.65 -6 11.3 -6 13 C-6.33 13 -6.66 13 -7 13 C-7.3125 10.3125 -7.3125 10.3125 -7 7 C-4.625 4.25 -4.625 4.25 -2 2 C-1.34 1.34 -0.68 0.68 0 0 Z " fill="#9A3A6A" transform="translate(487,313)"/>
<path d="M0 0 C1.65 0 3.3 0 5 0 C5 1.65 5 3.3 5 5 C3.35 5 1.7 5 0 5 C0 3.35 0 1.7 0 0 Z " fill="#070421" transform="translate(375,320)"/>
<path d="M0 0 C0.99 0.33 1.98 0.66 3 1 C4.1875 3.5625 4.1875 3.5625 5 6 C4.01 5.67 3.02 5.34 2 5 C1.67 7.31 1.34 9.62 1 12 C0.67 12 0.34 12 0 12 C0 8.04 0 4.08 0 0 Z " fill="#38163A" transform="translate(450,336)"/>
<path d="M0 0 C1.98 0.99 1.98 0.99 4 2 C3.01 2.33 2.02 2.66 1 3 C1 7.95 1 12.9 1 18 C0.67 18 0.34 18 0 18 C0 12.06 0 6.12 0 0 Z " fill="#17092F" transform="translate(277,224)"/>
<path d="M0 0 C0 3 0 3 -1.6796875 4.82421875 C-2.40414063 5.43910156 -3.12859375 6.05398437 -3.875 6.6875 C-4.59429687 7.31011719 -5.31359375 7.93273437 -6.0546875 8.57421875 C-8 10 -8 10 -10 10 C-9.75 8.125 -9.75 8.125 -9 6 C-7.25 5 -7.25 5 -5 4 C-3.31110128 2.6949419 -1.6396721 1.36639342 0 0 Z " fill="#862C69" transform="translate(274,175)"/>
</svg>
